<svg xmlns="http://www.w3.org/2000/svg" xmlns:xlink="http://www.w3.org/1999/xlink" version="1.1" viewBox="0 0 256 256" xml:space="preserve">

<defs>
</defs>
<g style="stroke: none; stroke-width: 0; stroke-dasharray: none; stroke-linecap: butt; stroke-linejoin: miter; stroke-miterlimit: 10; fill: none; fill-rule: nonzero; opacity: 1;" transform="translate(45.02412451361867 45.024124513618645) scale(1.83 1.83)" >
	<path d="M 45 51.648 l 45 -27.845 v -6.422 c 0 -1.595 -1.293 -2.887 -2.887 -2.887 H 2.887 C 1.293 14.494 0 15.786 0 17.381 v 6.422 L 45 51.648 z" style="stroke: none; stroke-width: 1; stroke-dasharray: none; stroke-linecap: butt; stroke-linejoin: miter; stroke-miterlimit: 10; fill: rgb(142,29,29); fill-rule: nonzero; opacity: 1;" transform=" matrix(1 0 0 1 0 0) " stroke-linecap="round" />
	<path d="M 45.789 54.688 c -0.011 0.007 -0.023 0.008 -0.033 0.015 c -0.08 0.047 -0.166 0.08 -0.253 0.111 c -0.04 0.014 -0.077 0.035 -0.118 0.046 c -0.115 0.031 -0.233 0.045 -0.353 0.048 c -0.011 0 -0.021 0.004 -0.031 0.004 c 0 0 -0.001 0 -0.001 0 s -0.001 0 -0.001 0 c -0.011 0 -0.021 -0.004 -0.031 -0.004 c -0.119 -0.003 -0.238 -0.018 -0.353 -0.048 c -0.04 -0.011 -0.078 -0.032 -0.118 -0.046 c -0.087 -0.031 -0.172 -0.064 -0.253 -0.111 c -0.011 -0.006 -0.023 -0.008 -0.033 -0.015 L 0 27.331 v 45.289 c 0 1.594 1.293 2.887 2.887 2.887 h 84.226 c 1.594 0 2.887 -1.293 2.887 -2.887 V 27.331 L 45.789 54.688 z" style="stroke: none; stroke-width: 1; stroke-dasharray: none; stroke-linecap: butt; stroke-linejoin: miter; stroke-miterlimit: 10; fill: rgb(142,29,29); fill-rule: nonzero; opacity: 1;" transform=" matrix(1 0 0 1 0 0) " stroke-linecap="round" />
</g>
</svg>