<svg xmlns="http://www.w3.org/2000/svg" xmlns:xlink="http://www.w3.org/1999/xlink" version="1.1"  viewBox="0 0 256 256" xml:space="preserve">

<defs>
</defs>
<g style="stroke: none; stroke-width: 0; stroke-dasharray: none; stroke-linecap: butt; stroke-linejoin: miter; stroke-miterlimit: 10; fill: none; fill-rule: nonzero; opacity: 1;" transform="translate(36.059143968871595 36.05914396887157) scale(2.03 2.03)" >
	<path d="M 69.457 88.342 l 8.938 -4.509 c 4.251 -2.145 4.761 -8.012 0.944 -10.858 L 65.846 62.917 c -2.035 -1.517 -4.773 -1.69 -6.983 -0.441 l -3.919 2.215 c -1.88 1.063 -4.182 1.133 -6.088 0.118 C 38.56 59.328 30.672 51.44 25.191 41.144 c -1.015 -1.906 -0.945 -4.208 0.118 -6.088 l 2.215 -3.919 c 1.249 -2.209 1.076 -4.948 -0.441 -6.983 L 17.025 10.661 c -2.846 -3.818 -8.714 -3.308 -10.858 0.944 l -4.509 8.938 c -2.107 4.177 -2.224 9.101 -0.246 13.341 c 11.6 24.87 29.834 43.104 54.704 54.704 C 60.355 90.566 65.28 90.449 69.457 88.342 z" style="stroke: none; stroke-width: 1; stroke-dasharray: none; stroke-linecap: butt; stroke-linejoin: miter; stroke-miterlimit: 10; fill: rgb(142,29,29); fill-rule: nonzero; opacity: 1;" transform=" matrix(1 0 0 1 0 0) " stroke-linecap="round" />
	<path d="M 85.913 53.128 c -2.257 0 -4.087 -1.829 -4.087 -4.087 c 0 -22.535 -18.333 -40.868 -40.868 -40.868 c -2.257 0 -4.087 -1.829 -4.087 -4.087 S 38.701 0 40.959 0 C 68 0 90 22 90 49.041 C 90 51.299 88.171 53.128 85.913 53.128 z" style="stroke: none; stroke-width: 1; stroke-dasharray: none; stroke-linecap: butt; stroke-linejoin: miter; stroke-miterlimit: 10; fill: rgb(142,29,29); fill-rule: nonzero; opacity: 1;" transform=" matrix(1 0 0 1 0 0) " stroke-linecap="round" />
	<path d="M 69.566 53.128 c -2.257 0 -4.087 -1.829 -4.087 -4.087 c 0 -13.521 -10.999 -24.521 -24.521 -24.521 c -2.257 0 -4.087 -1.829 -4.087 -4.087 s 1.829 -4.087 4.087 -4.087 c 18.028 0 32.694 14.667 32.694 32.694 C 73.653 51.299 71.823 53.128 69.566 53.128 z" style="stroke: none; stroke-width: 1; stroke-dasharray: none; stroke-linecap: butt; stroke-linejoin: miter; stroke-miterlimit: 10; fill: rgb(142,29,29); fill-rule: nonzero; opacity: 1;" transform=" matrix(1 0 0 1 0 0) " stroke-linecap="round" />
</g>
</svg>