<svg xmlns="http://www.w3.org/2000/svg" xmlns:xlink="http://www.w3.org/1999/xlink" version="1.1" viewBox="0 0 256 256" xml:space="preserve">

<defs>
</defs>
<g style="stroke: none; stroke-width: 0; stroke-dasharray: none; stroke-linecap: butt; stroke-linejoin: miter; stroke-miterlimit: 10; fill: none; fill-rule: nonzero; opacity: 1;" transform="translate(1.4065934065934016 1.4065934065934016) scale(2.81 2.81)" >
	<path d="M 25.334 90 c 3.415 -2.853 8.943 -12.256 10.189 -17.048 c 0.671 -2.581 3.437 -13.114 3.437 -13.114 c 1.799 3.43 7.054 6.334 12.644 6.334 c 16.638 0 28.626 -15.301 28.626 -34.312 C 80.229 13.636 65.357 0 46.22 0 C 22.415 0 9.771 15.981 9.771 33.382 c 0 8.091 4.307 18.164 11.198 21.371 c 1.045 0.486 1.604 0.272 1.845 -0.738 c 0.183 -0.767 1.113 -4.513 1.532 -6.256 c 0.134 -0.557 0.068 -1.036 -0.383 -1.582 c -2.279 -2.764 -4.105 -7.848 -4.105 -12.589 c 0 -12.167 9.213 -23.94 24.909 -23.94 c 13.552 0 23.042 9.235 23.042 22.443 c 0 14.923 -7.536 25.261 -17.341 25.261 c -5.415 0 -9.469 -4.478 -8.169 -9.968 c 1.555 -6.558 4.569 -13.634 4.569 -18.367 c 0 -4.237 -2.274 -7.771 -6.98 -7.771 c -5.536 0 -9.982 5.727 -9.982 13.397 c 0 4.886 1.65 8.19 1.65 8.19 s -5.467 23.115 -6.469 27.421 c -1.109 4.764 -0.674 11.476 -0.191 15.84 L 25.334 90 z" style="stroke: none; stroke-width: 1; stroke-dasharray: none; stroke-linecap: butt; stroke-linejoin: miter; stroke-miterlimit: 10; fill: rgb(229,203,160); fill-rule: nonzero; opacity: 1;" transform=" matrix(1 0 0 1 0 0) " stroke-linecap="round" />
</g>
</svg>