<svg xmlns="http://www.w3.org/2000/svg" xmlns:xlink="http://www.w3.org/1999/xlink" version="1.1" width="20" height="20" viewBox="0 0 256 256" xml:space="preserve">

<defs>
</defs>
<g style="stroke: none; stroke-width: 0; stroke-dasharray: none; stroke-linecap: butt; stroke-linejoin: miter; stroke-miterlimit: 10; fill: none; fill-rule: nonzero; opacity: 1;" transform="translate(1.4065934065934016 1.4065934065934016) scale(2.81 2.81)" >
	<path d="M 77.061 50.262 c 0 -6.322 -4.613 -11.548 -10.726 -12.444 c 0.441 -1.282 0.692 -2.651 0.692 -4.081 c 0 -6.939 -5.645 -12.584 -12.584 -12.584 c -3.327 0 -6.348 1.307 -8.6 3.423 c -0.567 -10.765 1.101 -17.309 4.971 -19.46 c 0.483 -0.268 0.657 -0.877 0.389 -1.36 c -0.269 -0.483 -0.877 -0.657 -1.359 -0.388 c -2.357 1.31 -4.017 3.765 -5.008 7.383 c -0.976 -2.31 -2.794 -4.689 -5.274 -6.712 c -4.697 -3.83 -10.18 -5.106 -13.332 -3.101 c -0.182 0.115 -0.321 0.287 -0.398 0.488 c -1.328 3.491 1.024 8.605 5.722 12.434 c 3.21 2.617 6.786 4.042 9.734 4.042 c 0.922 0 1.774 -0.152 2.542 -0.437 c -0.118 2.052 -0.12 4.312 -0.002 6.794 c -2.27 -1.977 -5.204 -3.106 -8.271 -3.106 c -6.939 0 -12.584 5.645 -12.584 12.584 c 0 1.413 0.229 2.785 0.682 4.096 c -6.053 0.908 -10.715 6.127 -10.715 12.429 c 0 5.991 4.27 11.138 10.06 12.32 c 0.235 5.76 4.348 10.529 9.8 11.754 c -0.252 1.001 -0.383 2.031 -0.383 3.076 c 0 6.939 5.645 12.584 12.584 12.584 s 12.584 -5.645 12.584 -12.584 c 0 -1.046 -0.131 -2.075 -0.382 -3.076 c 5.452 -1.225 9.565 -5.994 9.8 -11.754 C 72.791 61.4 77.061 56.254 77.061 50.262 z M 43.517 15.44 c -2.441 1.227 -6.947 -0.069 -10.701 -3.13 s -5.932 -7.214 -5.22 -9.852 c 2.441 -1.227 6.947 0.069 10.702 3.13 C 42.052 8.649 44.229 12.802 43.517 15.44 z M 54.443 23.152 c 5.836 0 10.584 4.748 10.584 10.584 c 0 4.979 -3.461 9.156 -8.101 10.278 c -0.009 0.001 -0.017 -0.003 -0.025 -0.001 c -0.028 0.004 -0.049 0.021 -0.075 0.027 c -0.767 0.177 -1.562 0.28 -2.382 0.28 c -5.836 0 -10.584 -4.748 -10.584 -10.584 C 43.859 27.9 48.607 23.152 54.443 23.152 z M 56.175 46.722 c 0 5.836 -4.749 10.584 -10.584 10.584 c -5.836 0 -10.584 -4.748 -10.584 -10.584 c 0 -1.173 0.19 -2.324 0.565 -3.423 c 1.06 -3.105 3.571 -5.554 6.656 -6.596 c 1.339 5.51 6.301 9.618 12.216 9.618 c 0.582 0 1.15 -0.054 1.712 -0.13 C 56.164 46.368 56.175 46.545 56.175 46.722 z M 35.557 23.152 c 3.199 0 6.214 1.471 8.217 3.944 c -1.206 1.93 -1.915 4.202 -1.915 6.641 c 0 0.329 0.024 0.652 0.049 0.975 c -3.32 1.023 -6.116 3.403 -7.637 6.515 c -2.281 -2.214 -5.301 -3.477 -8.519 -3.535 c -0.508 -1.255 -0.78 -2.58 -0.78 -3.954 C 24.973 27.9 29.721 23.152 35.557 23.152 z M 14.939 50.262 c 0 -5.836 4.748 -10.584 10.584 -10.584 c 3.077 0 5.946 1.326 7.961 3.633 c -0.311 1.106 -0.478 2.249 -0.478 3.411 c 0 1.02 0.135 2.006 0.365 2.956 c -5.5 0.953 -9.651 5.37 -10.3 10.88 C 18.369 59.441 14.939 55.189 14.939 50.262 z M 24.973 62.067 c 0 -5.308 3.84 -9.699 9.021 -10.459 c 1.49 3.522 4.544 6.216 8.282 7.24 c -0.276 1.046 -0.417 2.125 -0.417 3.219 c 0 2.439 0.709 4.71 1.915 6.641 c -2.003 2.472 -5.019 3.943 -8.218 3.943 C 29.721 72.651 24.973 67.903 24.973 62.067 z M 55.584 77.412 c 0 5.836 -4.748 10.584 -10.584 10.584 c -5.836 0 -10.584 -4.748 -10.584 -10.584 c 0 -0.955 0.13 -1.892 0.379 -2.8 c 0.253 0.015 0.504 0.039 0.762 0.039 c 3.631 0 7.071 -1.588 9.448 -4.289 c 2.308 2.623 5.679 4.289 9.439 4.289 c 0.257 0 0.509 -0.023 0.762 -0.039 C 55.454 75.519 55.584 76.457 55.584 77.412 z M 54.443 72.651 c -5.836 0 -10.584 -4.748 -10.584 -10.584 c 0 -0.966 0.133 -1.916 0.388 -2.835 c 0.442 0.047 0.889 0.074 1.343 0.074 c 5.124 0 9.534 -3.082 11.495 -7.485 c 4.645 1.189 7.942 5.375 7.942 10.247 C 65.027 67.903 60.28 72.651 54.443 72.651 z M 66.927 60.559 c -0.607 -5.077 -4.225 -9.3 -9.18 -10.638 c 0.27 -1.024 0.428 -2.092 0.428 -3.2 c 0 -0.317 -0.013 -0.637 -0.037 -0.956 c 3.166 -0.974 5.804 -3.165 7.363 -6.026 c 5.405 0.516 9.56 5.022 9.56 10.523 C 75.061 55.19 71.63 59.443 66.927 60.559 z" style="stroke: none; stroke-width: 1; stroke-dasharray: none; stroke-linecap: butt; stroke-linejoin: miter; stroke-miterlimit: 10; fill: rgb(142,29,29); fill-rule: nonzero; opacity: 1;" transform=" matrix(1 0 0 1 0 0) " stroke-linecap="round" />
</g>
</svg>