<svg xmlns="http://www.w3.org/2000/svg" xmlns:xlink="http://www.w3.org/1999/xlink" version="1.1" width="30" height="30" viewBox="0 0 256 256" xml:space="preserve">

<defs>
</defs>
<g style="stroke: none; stroke-width: 0; stroke-dasharray: none; stroke-linecap: butt; stroke-linejoin: miter; stroke-miterlimit: 10; fill: none; fill-rule: nonzero; opacity: 1;" transform="translate(1.4065934065934016 1.4065934065934016) scale(2.81 2.81)" >
	<path d="M 74.576 63.065 H 28.525 c -4.15 0 -7.615 -2.979 -8.239 -7.081 l -5.793 -38.127 c -0.043 -0.288 0.041 -0.581 0.23 -0.802 s 0.467 -0.348 0.758 -0.348 h 69.472 c 1.529 0 2.959 0.682 3.921 1.87 c 0.963 1.189 1.332 2.729 1.015 4.225 l -7.162 33.665 C 81.913 60.29 78.485 63.065 74.576 63.065 z M 16.645 18.707 l 5.619 36.977 c 0.474 3.118 3.107 5.382 6.261 5.382 h 46.051 c 2.972 0 5.576 -2.109 6.193 -5.015 l 7.162 -33.665 c 0.192 -0.903 -0.03 -1.833 -0.611 -2.55 s -1.444 -1.129 -2.367 -1.129 H 16.645 z" style="stroke: none; stroke-width: 1; stroke-dasharray: none; stroke-linecap: butt; stroke-linejoin: miter; stroke-miterlimit: 10; fill: rgb(255,255,255); fill-rule: nonzero; opacity: 1;" transform=" matrix(1 0 0 1 0 0) " stroke-linecap="round" />
	<path d="M 15.48 18.707 c -0.494 0 -0.924 -0.366 -0.99 -0.869 l -0.611 -4.636 c -0.354 -2.684 -2.663 -4.708 -5.37 -4.708 H 1 c -0.552 0 -1 -0.448 -1 -1 s 0.448 -1 1 -1 h 7.509 c 3.706 0 6.867 2.771 7.352 6.446 l 0.611 4.636 c 0.072 0.548 -0.313 1.05 -0.86 1.122 C 15.568 18.704 15.524 18.707 15.48 18.707 z" style="stroke: none; stroke-width: 1; stroke-dasharray: none; stroke-linecap: butt; stroke-linejoin: miter; stroke-miterlimit: 10; fill: rgb(255,255,255); fill-rule: nonzero; opacity: 1;" transform=" matrix(1 0 0 1 0 0) " stroke-linecap="round" />
	<path d="M 28.812 83.507 c -4.293 0 -7.787 -3.493 -7.787 -7.787 c 0 -4.293 3.493 -7.786 7.787 -7.786 s 7.787 3.493 7.787 7.786 C 36.599 80.014 33.105 83.507 28.812 83.507 z M 28.812 69.934 c -3.191 0 -5.787 2.596 -5.787 5.786 c 0 3.191 2.596 5.787 5.787 5.787 s 5.787 -2.596 5.787 -5.787 C 34.599 72.529 32.003 69.934 28.812 69.934 z" style="stroke: none; stroke-width: 1; stroke-dasharray: none; stroke-linecap: butt; stroke-linejoin: miter; stroke-miterlimit: 10; fill: rgb(255,255,255); fill-rule: nonzero; opacity: 1;" transform=" matrix(1 0 0 1 0 0) " stroke-linecap="round" />
	<path d="M 71.951 83.507 c -4.294 0 -7.787 -3.493 -7.787 -7.787 c 0 -4.293 3.493 -7.786 7.787 -7.786 s 7.787 3.493 7.787 7.786 C 79.738 80.014 76.245 83.507 71.951 83.507 z M 71.951 69.934 c -3.191 0 -5.787 2.596 -5.787 5.786 c 0 3.191 2.596 5.787 5.787 5.787 s 5.787 -2.596 5.787 -5.787 C 77.738 72.529 75.143 69.934 71.951 69.934 z" style="stroke: none; stroke-width: 1; stroke-dasharray: none; stroke-linecap: butt; stroke-linejoin: miter; stroke-miterlimit: 10; fill: rgb(255,255,255); fill-rule: nonzero; opacity: 1;" transform=" matrix(1 0 0 1 0 0) " stroke-linecap="round" />
</g>
</svg>