<svg xmlns="http://www.w3.org/2000/svg" xmlns:xlink="http://www.w3.org/1999/xlink" version="1.1" width="30" height="30" viewBox="0 0 256 256" xml:space="preserve">

<defs>
</defs>
<g style="stroke: none; stroke-width: 0; stroke-dasharray: none; stroke-linecap: butt; stroke-linejoin: miter; stroke-miterlimit: 10; fill: none; fill-rule: nonzero; opacity: 1;" transform="translate(1.4065934065934016 1.4065934065934016) scale(2.81 2.81)" >
	<path d="M 45 90 C 20.187 90 0 69.813 0 45 C 0 20.187 20.187 0 45 0 c 24.813 0 45 20.187 45 45 C 90 69.813 69.813 90 45 90 z M 45 2 C 21.29 2 2 21.29 2 45 c 0 23.71 19.29 43 43 43 c 23.71 0 43 -19.29 43 -43 C 88 21.29 68.71 2 45 2 z" style="stroke: none; stroke-width: 1; stroke-dasharray: none; stroke-linecap: butt; stroke-linejoin: miter; stroke-miterlimit: 10; fill: rgb(255,255,255); fill-rule: nonzero; opacity: 1;" transform=" matrix(1 0 0 1 0 0) " stroke-linecap="round" />
	<path d="M 45 51.117 c -8.632 0 -15.655 -7.023 -15.655 -15.655 S 36.368 19.808 45 19.808 s 15.654 7.023 15.654 15.655 S 53.632 51.117 45 51.117 z M 45 21.808 c -7.529 0 -13.655 6.125 -13.655 13.655 S 37.471 49.117 45 49.117 s 13.654 -6.125 13.654 -13.655 S 52.529 21.808 45 21.808 z" style="stroke: none; stroke-width: 1; stroke-dasharray: none; stroke-linecap: butt; stroke-linejoin: miter; stroke-miterlimit: 10; fill: rgb(255,255,255); fill-rule: nonzero; opacity: 1;" transform=" matrix(1 0 0 1 0 0) " stroke-linecap="round" />
	<path d="M 45 90 c -7.53 0 -14.986 -1.9 -21.56 -5.495 l -0.521 -0.284 V 71.197 c 0 -12.175 9.905 -22.08 22.081 -22.08 c 12.176 0 22.081 9.905 22.081 22.08 v 13.023 l -0.521 0.284 C 59.985 88.1 52.53 90 45 90 z M 24.919 83.03 C 31.072 86.283 38.002 88 45 88 s 13.928 -1.717 20.081 -4.97 V 71.197 c 0 -11.072 -9.009 -20.08 -20.081 -20.08 s -20.081 9.008 -20.081 20.08 V 83.03 z" style="stroke: none; stroke-width: 1; stroke-dasharray: none; stroke-linecap: butt; stroke-linejoin: miter; stroke-miterlimit: 10; fill: rgb(255,255,255); fill-rule: nonzero; opacity: 1;" transform=" matrix(1 0 0 1 0 0) " stroke-linecap="round" />
</g>
</svg>